Coordinates
version=1
nRows=60
nColumns=12
inDegrees=yes

Units are S.I. units (second, meters, Newtons, ...)
Angles are in degrees

endheader
time	SC_y	SC_z	SC_x	AC_y	AC_z	AC_x	GH_y	GH_z	GH_yy	EL_x	PS_y
       0.0              -14.83          27.39          48.16          34.56        -0.8061         -12.05          7.115         -12.32          152.0          27.91          38.37
   0.01765              -14.83          27.38          48.16          34.57        -0.8056         -12.05          7.137         -12.31          152.0          27.92          38.38
    0.0353              -14.83          27.38          48.16          34.57         -0.805         -12.05          7.162          -12.3          152.0          27.93          38.39
   0.05295              -14.83          27.38          48.16          34.58        -0.8044         -12.05          7.187         -12.29          152.0          27.94           38.4
    0.0706              -14.84          27.38          48.15          34.58        -0.8038         -12.05          7.215         -12.27          152.0          27.96           38.4
   0.08825              -14.84          27.38          48.15          34.59        -0.8031         -12.05          7.244         -12.26          152.0          27.97          38.41
    0.1059              -14.84          27.37          48.15          34.59        -0.8024         -12.05          7.275         -12.24          152.0          27.99          38.42
    0.1236              -14.84          27.37          48.15           34.6        -0.8017         -12.05          7.309         -12.23          152.0           28.0          38.43
    0.1412              -14.85          27.37          48.14           34.6        -0.8009         -12.05          7.344         -12.21          152.0          28.02          38.44
    0.1589              -14.85          27.37          48.14          34.61           -0.8         -12.05          7.383         -12.19          152.0          28.04          38.45
    0.1765              -14.85          27.36          48.14          34.62        -0.7991         -12.05          7.424         -12.17          152.0          28.06          38.47
    0.1942              -14.86          27.36          48.13          34.63        -0.7981         -12.05          7.468         -12.14          152.0          28.08          38.48
    0.2118              -14.86          27.36          48.13          34.64         -0.797         -12.05          7.516         -12.12          152.0           28.1          38.49
    0.2295              -14.87          27.35          48.13          34.65        -0.7958         -12.05          7.567         -12.09          152.0          28.13          38.51
    0.2471              -14.87          27.35          48.12          34.66        -0.7946         -12.05          7.623         -12.06          151.9          28.15          38.52
    0.2648              -14.87          27.35          48.12          34.67        -0.7932         -12.05          7.684         -12.03          151.9          28.18          38.54
    0.2824              -14.88          27.34          48.11          34.68        -0.7917         -12.05          7.749          -12.0          151.9          28.22          38.56
    0.3001              -14.89          27.34          48.11           34.7        -0.7901         -12.05          7.821         -11.96          151.9          28.25          38.58
    0.3177              -14.89          27.33           48.1          34.71        -0.7883         -12.05          7.899         -11.92          151.9          28.29          38.61
    0.3354               -14.9          27.32           48.1          34.73        -0.7864         -12.05          7.985         -11.88          151.9          28.33          38.63
     0.353              -14.91          27.32          48.09          34.74        -0.7842         -12.05          8.079         -11.83          151.9          28.38          38.66
    0.3707              -14.92          27.31          48.08          34.76        -0.7819         -12.05          8.182         -11.78          151.9          28.43          38.69
    0.3883              -14.93           27.3          48.07          34.79        -0.7793         -12.05          8.297         -11.72          151.9          28.48          38.72
     0.406              -14.94          27.29          48.06          34.81        -0.7764         -12.05          8.423         -11.66          151.9          28.54          38.76
    0.4236              -14.95          27.28          48.05          34.84        -0.7732         -12.05          8.564         -11.58          151.9          28.61           38.8
    0.4413              -14.96          27.27          48.04          34.87        -0.7697         -12.05          8.721          -11.5          151.9          28.69          38.85
    0.4589              -14.98          27.26          48.03           34.9        -0.7657         -12.05          8.897         -11.41          151.9          28.78           38.9
    0.4766              -14.99          27.24          48.01          34.94        -0.7612         -12.05          9.095         -11.31          151.9          28.87          38.96
    0.4942              -15.01          27.23          47.99          34.98        -0.7561         -12.04          9.319          -11.2          151.9          28.98          39.03
    0.5119              -15.03          27.21          47.97          35.03        -0.7504         -12.04          9.573         -11.07          151.9           29.1           39.1
    0.5295              -15.06          27.19          47.95          35.08        -0.7438         -12.04          9.863         -10.92          151.9          29.25          39.19
    0.5472              -15.09          27.16          47.93          35.15        -0.7363         -12.04           10.2         -10.75          151.9          29.41          39.28
    0.5648              -15.12          27.14           47.9          35.22        -0.7276         -12.04          10.58         -10.55          151.8          29.59           39.4
    0.5825              -15.16           27.1          47.86          35.31        -0.7174         -12.04          11.03         -10.32          151.8          29.81          39.53
    0.6001               -15.2          27.07          47.82          35.41        -0.7056         -12.04          11.55         -10.06          151.8          30.07          39.68
    0.6178              -15.25          27.02          47.78          35.52        -0.6916         -12.04          12.16         -9.742          151.8          30.37          39.87
    0.6354              -15.31          26.97          47.72          35.66        -0.6751         -12.04           12.9         -9.368          151.8          30.72          40.08
    0.6531              -15.39          26.91          47.66          35.83        -0.6552         -12.03          13.77          -8.92          151.7          31.15          40.34
    0.6707              -15.48          26.83          47.58          36.03        -0.6312         -12.03          14.83         -8.377          151.7          31.67          40.65
    0.6884              -15.59          26.74          47.48          36.28        -0.6018         -12.03          16.13         -7.714          151.6           32.3          41.04
     0.706              -15.72          26.62          47.36          36.58        -0.5655         -12.02          17.73         -6.896          151.6          33.08          41.51
    0.7237              -15.89          26.48           47.2          36.96        -0.5203         -12.02          19.73         -5.876          151.5          34.05           42.1
    0.7413               -16.1           26.3          47.01          37.44        -0.4634         -12.01          22.24         -4.591          151.4          35.27          42.84
     0.759              -16.37          26.07          46.77          38.05         -0.391          -12.0          25.43         -2.957          151.3          36.83          43.79
    0.7766              -16.71          25.77          46.46          38.83        -0.2983         -11.99          29.52        -0.8664          151.2          38.82           45.0
    0.7943              -17.16          25.39          46.06          39.82        -0.1794         -11.98          34.77          1.817          151.0          41.37          46.55
    0.8119              -17.72          24.91          45.56           41.1       -0.02753         -11.96          41.48          5.244          150.7          44.64          48.53
    0.8296              -18.43           24.3          44.92           42.7         0.1634         -11.93           49.9          9.554          150.4          48.74          51.02
    0.8472              -19.29          23.56          44.14          44.66         0.3962         -11.91          60.18          14.81          150.1          53.74          54.05
    0.8649               -20.3           22.7          43.24          46.92         0.6659         -11.87          72.08          20.89          149.6          59.54          57.57
    0.8825              -21.38          21.77          42.26          49.38          0.958         -11.84          84.97          27.48          149.2          65.82          61.38
    0.9002              -22.47          20.85          41.28          51.83           1.25          -11.8          97.86          34.08          148.7          72.09          65.19
    0.9178              -23.47          19.99          40.38           54.1           1.52         -11.77          109.8          40.16          148.3          77.89          68.71
    0.9355              -24.34          19.25           39.6          56.05          1.753         -11.74          120.0          45.42          147.9          82.89          71.74
    0.9531              -25.05          18.64          38.96          57.66          1.944         -11.72          128.5          49.72          147.6           87.0          74.23
    0.9708              -25.61          18.16          38.45          58.93          2.096          -11.7          135.2          53.15          147.3          90.26          76.21
    0.9884              -26.05          17.78          38.05          59.93          2.214         -11.69          140.4          55.84          147.1          92.81          77.76
     1.006               -26.4          17.48          37.74          60.71          2.307         -11.68          144.5          57.93          147.0          94.81          78.97
     1.024              -26.66          17.25           37.5          61.32          2.379         -11.67          147.7          59.56          146.9          96.36          79.92
     1.041              -26.88          17.07          37.31          61.79          2.436         -11.66          150.2          60.85          146.8          97.58          80.66
